<svg xmlns="http://www.w3.org/2000/svg" viewBox="0 0 53.23 53.23"><defs><style>.cls-1{fill-rule:evenodd;}</style></defs><g id="Capa_2" data-name="Capa 2"><g id="OBJECTS"><path class="cls-1" d="M23.89,26.7V36.82a.26.26,0,0,0,.27.26h3.76a.26.26,0,0,0,.26-.26V26.53h2.73a.26.26,0,0,0,.26-.24l.26-3.1a.27.27,0,0,0-.26-.29h-3V20.71a.94.94,0,0,1,.93-.94h2.1a.27.27,0,0,0,.27-.26v-3.1a.27.27,0,0,0-.27-.27H27.67a3.78,3.78,0,0,0-3.78,3.78v3H22a.27.27,0,0,0-.26.27v3.1a.26.26,0,0,0,.26.26h1.88Z"/><path d="M26.61,53.23A26.62,26.62,0,1,1,53.23,26.61,26.65,26.65,0,0,1,26.61,53.23Zm0-51.65a25,25,0,1,0,25,25A25.06,25.06,0,0,0,26.61,1.58Z"/></g></g></svg>