<svg xmlns="http://www.w3.org/2000/svg" viewBox="0 0 53.23 53.23"><g id="Capa_2" data-name="Capa 2"><g id="OBJECTS"><path d="M32.53,19.49a1.29,1.29,0,1,0,1.28,1.29A1.29,1.29,0,0,0,32.53,19.49Zm-5.71,1.65a5.4,5.4,0,1,0,5.39,5.4A5.4,5.4,0,0,0,26.82,21.14Zm0,8.85a3.46,3.46,0,1,1,3.45-3.45A3.46,3.46,0,0,1,26.82,30ZM37.7,22.05a6.59,6.59,0,0,0-6.58-6.58H22.44a6.58,6.58,0,0,0-6.58,6.58v8.69a6.58,6.58,0,0,0,6.58,6.58h8.68a6.59,6.59,0,0,0,6.58-6.58Zm-2.06,8.69a4.51,4.51,0,0,1-4.52,4.51H22.44a4.51,4.51,0,0,1-4.52-4.51V22.05a4.52,4.52,0,0,1,4.52-4.52h8.68a4.52,4.52,0,0,1,4.52,4.52Z"/><path d="M26.61,53.23A26.62,26.62,0,1,1,53.23,26.61,26.65,26.65,0,0,1,26.61,53.23Zm0-51.65a25,25,0,1,0,25,25A25.06,25.06,0,0,0,26.61,1.58Z"/></g></g></svg>