<svg xmlns="http://www.w3.org/2000/svg" viewBox="0 0 53.49 177.08"><g id="Capa_2" data-name="Capa 2"><g id="Capa_1-2" data-name="Capa 1"><path d="M10.59,26.17l6.32-2.41L5.83,51.7,44.77,11.56l-9.57,3.3L44,4.23l-24.3,8L10.59,26.17ZM0,61.86c1.74-4.44,13.67-34.47,13.67-34.47l-7.86,3L18.67,10.83,51.29,0,42.54,10.55l11-3.83L0,61.86"/><path d="M10.59,83.78l6.32-2.41L5.83,109.31,44.77,69.17l-9.57,3.3L44,61.84l-24.3,8L10.59,83.78ZM0,119.47C1.74,115,13.67,85,13.67,85L5.81,88,18.67,68.44,51.29,57.61,42.54,68.16l11-3.83L0,119.47"/><path d="M10.59,141.39,16.91,139,5.83,166.92l38.94-40.13-9.57,3.29L44,119.45l-24.3,8-9.15,13.89ZM0,177.08c1.74-4.44,13.67-34.47,13.67-34.47l-7.86,3,12.86-19.57,32.62-10.83-8.75,10.55,11-3.82L0,177.08"/></g></g></svg>