<svg xmlns="http://www.w3.org/2000/svg" viewBox="0 0 53.23 53.23"><g id="Capa_2" data-name="Capa 2"><g id="OBJECTS"><path d="M36.42,15.91a5.62,5.62,0,0,1-.62.75q-3.51,4.1-7,8.17c-.11.12-.07.2,0,.31l6.31,9.17L37,37.1s.12.11.08.18-.12,0-.19,0H31.07a.38.38,0,0,1-.35-.19q-2.71-4-5.42-7.91c-.12-.17-.17-.16-.3,0l-6.82,7.94a.44.44,0,0,1-.37.17H16.35c-.05,0-.13,0-.15,0s0-.09.06-.13q2.07-2.38,4.13-4.79L24.17,28a.25.25,0,0,0,0-.36q-3.69-5.35-7.37-10.72l-.67-1h6.31a.91.91,0,0,0,.17.28l5.05,7.35c.13.2.13.19.29,0l3.74-4.35,2.82-3.29ZM33.11,36h1.17c.06,0,.16,0,.19,0s0-.12-.08-.18L21.64,17.51a.36.36,0,0,0-.36-.18H19c-.08,0-.19,0-.23,0s.05.16.1.23q4.26,6.07,8.51,12.17l4.21,6A.37.37,0,0,0,32,36Z"/><path d="M26.61,53.23A26.62,26.62,0,1,1,53.23,26.61,26.65,26.65,0,0,1,26.61,53.23Zm0-51.65a25,25,0,1,0,25,25A25.06,25.06,0,0,0,26.61,1.58Z"/></g></g></svg>